<svg width="27" height="24" viewBox="0 0 27 24" fill="none" xmlns="http://www.w3.org/2000/svg">
<path d="M26.5239 10.1032L13.9244 0.174164C13.7758 0.058085 13.597 0 13.4182 0C13.2394 0 13.0607 0.058085 12.912 0.174164L7.94746 4.08449V3.71296C7.94746 3.21604 7.54807 2.81666 7.05576 2.81666H5.38858C4.89632 2.81666 4.49228 3.21604 4.49228 3.71296V6.8106L0.312594 10.1032C-0.295792 10.5816 0.043233 11.5615 0.818806 11.5615H3.07586C3.52632 11.5615 3.88855 11.9284 3.88855 12.3788V23.049C5.38299 23.5744 6.96946 23.8489 8.5934 23.8489C12.5501 23.8489 16.3035 22.1995 18.9889 19.3025L19.2999 18.9504C19.4563 18.7733 19.5904 18.5779 19.6995 18.3684L19.8574 18.0647C19.938 17.9099 20.0445 17.7702 20.174 17.6531C20.2725 17.5641 20.3805 17.4716 20.4379 17.4375L21.4302 16.8461C21.5834 16.7549 21.7581 16.7069 21.9359 16.7069C22.2004 16.7069 22.4487 16.8098 22.6355 16.9972L22.9479 17.3096V12.3788C22.9479 11.9284 23.3102 11.5615 23.7607 11.5615H26.0177C26.7932 11.5615 27.1323 10.5816 26.5239 10.1032ZM7.16853 17.725L6.81229 17.5926L6.89519 18.5296L6.67435 17.6152L6.37906 17.8545L6.51136 17.4982L5.57446 17.5811L6.48874 17.3603L6.24952 17.065L6.60576 17.1973L6.52286 16.2604L6.74366 17.1747L7.03895 16.9355L6.90664 17.2917L7.84354 17.2088L6.92922 17.4296L7.16853 17.725ZM12.7009 18.0127H9.39026V14.702H12.7009V18.0127ZM12.7009 13.4109H9.39026V10.1002H12.7009V13.4109ZM13.4595 5.35876L12.8388 7.30988L13.1635 5.28838L12.3696 5.52068L12.9346 4.91649L10.9836 4.29586L13.0051 4.62057L12.7728 3.82662L13.377 4.39163L13.9976 2.44061L13.6729 4.46206L14.4668 4.22977L13.9018 4.83395L15.8528 5.45463L13.8314 5.12987L14.0636 5.92378L13.4595 5.35876ZM17.4462 18.0127H14.1355V14.702H17.4462V18.0127ZM17.4462 13.4109H14.1355V10.1002H17.4462V13.4109ZM20.8387 9.77325L21.3517 10.1298L20.7287 10.0841L21.2889 11.5252L20.5214 10.183L20.1648 10.6959L20.2105 10.0729L18.7694 10.6332L20.1116 9.86563L19.5987 9.50907L20.2217 9.55473L19.6615 8.11367L20.429 9.45582L20.7856 8.94285L20.7399 9.56586L22.181 9.00563L20.8387 9.77325Z" fill="#1E7E51"/>
</svg>
